<mxfile host="app.diagrams.net" modified="2024-01-25T03:30:13.182Z" agent="Mozilla/5.0 (Windows NT 10.0; Win64; x64) AppleWebKit/537.36 (KHTML, like Gecko) Chrome/120.0.0.0 Safari/537.36" etag="IGOlMxCi4UwQJXtOA5DG" version="23.0.1" type="device">
  <diagram name="ページ1" id="pGYR23bRDNQKbLXvwWUq">
    <mxGraphModel dx="2074" dy="1106" grid="1" gridSize="10" guides="1" tooltips="1" connect="1" arrows="1" fold="1" page="1" pageScale="1" pageWidth="827" pageHeight="1169" math="0" shadow="0">
      <root>
        <mxCell id="0" />
        <mxCell id="1" parent="0" />
        <mxCell id="IkprI8HKpVjri-fACo05-2" value="&lt;font style=&quot;font-size: 15px;&quot;&gt;&lt;b&gt;web-service-prod-internetgateway&lt;/b&gt;&lt;/font&gt;" style="text;html=1;strokeColor=none;fillColor=none;align=center;verticalAlign=middle;whiteSpace=wrap;rounded=0;" vertex="1" parent="1">
          <mxGeometry x="660" y="288" width="200" height="30" as="geometry" />
        </mxCell>
        <mxCell id="uyEi14HVC9VFbsCsnYhN-1" value="" style="ellipse;shape=cloud;whiteSpace=wrap;html=1;" parent="1" vertex="1">
          <mxGeometry x="700" y="10" width="120" height="80" as="geometry" />
        </mxCell>
        <mxCell id="uyEi14HVC9VFbsCsnYhN-47" value="" style="ellipse;shape=cloud;whiteSpace=wrap;html=1;" parent="1" vertex="1">
          <mxGeometry x="1230" y="10" width="120" height="80" as="geometry" />
        </mxCell>
        <mxCell id="uyEi14HVC9VFbsCsnYhN-55" value="&lt;font style=&quot;font-size: 15px;&quot;&gt;AWS Cloud&lt;/font&gt;" style="points=[[0,0],[0.25,0],[0.5,0],[0.75,0],[1,0],[1,0.25],[1,0.5],[1,0.75],[1,1],[0.75,1],[0.5,1],[0.25,1],[0,1],[0,0.75],[0,0.5],[0,0.25]];outlineConnect=0;gradientColor=none;html=1;whiteSpace=wrap;fontSize=12;fontStyle=0;container=1;pointerEvents=0;collapsible=0;recursiveResize=0;shape=mxgraph.aws4.group;grIcon=mxgraph.aws4.group_aws_cloud_alt;strokeColor=#232F3E;fillColor=none;verticalAlign=top;align=left;spacingLeft=30;fontColor=#232F3E;dashed=0;strokeWidth=1;" parent="1" vertex="1">
          <mxGeometry x="51" y="150" width="1420" height="950" as="geometry" />
        </mxCell>
        <mxCell id="uyEi14HVC9VFbsCsnYhN-56" value="&lt;font style=&quot;font-size: 15px;&quot;&gt;Availability Zone A&lt;/font&gt;" style="fillColor=none;strokeColor=#147EBA;dashed=1;verticalAlign=top;fontStyle=0;fontColor=#147EBA;whiteSpace=wrap;html=1;" parent="uyEi14HVC9VFbsCsnYhN-55" vertex="1">
          <mxGeometry x="100" y="50" width="570" height="460" as="geometry" />
        </mxCell>
        <mxCell id="uyEi14HVC9VFbsCsnYhN-57" value="&lt;font style=&quot;font-size: 15px;&quot;&gt;Availability Zone C&lt;/font&gt;" style="fillColor=none;strokeColor=#147EBA;dashed=1;verticalAlign=top;fontStyle=0;fontColor=#147EBA;whiteSpace=wrap;html=1;" parent="uyEi14HVC9VFbsCsnYhN-55" vertex="1">
          <mxGeometry x="750" y="50" width="620" height="460" as="geometry" />
        </mxCell>
        <mxCell id="uyEi14HVC9VFbsCsnYhN-59" value="&lt;font style=&quot;font-size: 15px;&quot;&gt;Public subnet&lt;br&gt;web-service-prod-alb-a-subnet&lt;br&gt;(10.0.100.0/24)&lt;/font&gt;" style="points=[[0,0],[0.25,0],[0.5,0],[0.75,0],[1,0],[1,0.25],[1,0.5],[1,0.75],[1,1],[0.75,1],[0.5,1],[0.25,1],[0,1],[0,0.75],[0,0.5],[0,0.25]];outlineConnect=0;gradientColor=none;html=1;whiteSpace=wrap;fontSize=12;fontStyle=0;container=1;pointerEvents=0;collapsible=0;recursiveResize=0;shape=mxgraph.aws4.group;grIcon=mxgraph.aws4.group_security_group;grStroke=0;strokeColor=#7AA116;fillColor=#F2F6E8;verticalAlign=top;align=left;spacingLeft=30;fontColor=#248814;dashed=0;" parent="uyEi14HVC9VFbsCsnYhN-55" vertex="1">
          <mxGeometry x="110" y="210" width="540" height="270" as="geometry" />
        </mxCell>
        <mxCell id="uyEi14HVC9VFbsCsnYhN-58" value="&lt;font style=&quot;font-size: 15px;&quot;&gt;VPC&lt;br&gt;web-service-prod-vpc&lt;br&gt;(10.0.0.0/16)&lt;/font&gt;" style="points=[[0,0],[0.25,0],[0.5,0],[0.75,0],[1,0],[1,0.25],[1,0.5],[1,0.75],[1,1],[0.75,1],[0.5,1],[0.25,1],[0,1],[0,0.75],[0,0.5],[0,0.25]];outlineConnect=0;gradientColor=none;html=1;whiteSpace=wrap;fontSize=12;fontStyle=0;container=1;pointerEvents=0;collapsible=0;recursiveResize=0;shape=mxgraph.aws4.group;grIcon=mxgraph.aws4.group_vpc2;strokeColor=#8C4FFF;fillColor=none;verticalAlign=top;align=left;spacingLeft=30;fontColor=#AAB7B8;dashed=0;" parent="uyEi14HVC9VFbsCsnYhN-55" vertex="1">
          <mxGeometry x="40" y="100" width="1360" height="850" as="geometry" />
        </mxCell>
        <mxCell id="uyEi14HVC9VFbsCsnYhN-60" value="&lt;font style=&quot;font-size: 15px;&quot;&gt;Public subnet&lt;br&gt;web-service-prod-alb-c-subnet&lt;br&gt;(10.0.101.0/24)&lt;/font&gt;" style="points=[[0,0],[0.25,0],[0.5,0],[0.75,0],[1,0],[1,0.25],[1,0.5],[1,0.75],[1,1],[0.75,1],[0.5,1],[0.25,1],[0,1],[0,0.75],[0,0.5],[0,0.25]];outlineConnect=0;gradientColor=none;html=1;whiteSpace=wrap;fontSize=12;fontStyle=0;container=1;pointerEvents=0;collapsible=0;recursiveResize=0;shape=mxgraph.aws4.group;grIcon=mxgraph.aws4.group_security_group;grStroke=0;strokeColor=#7AA116;fillColor=#F2F6E8;verticalAlign=top;align=left;spacingLeft=30;fontColor=#248814;dashed=0;" parent="uyEi14HVC9VFbsCsnYhN-58" vertex="1">
          <mxGeometry x="740" y="120" width="580" height="260" as="geometry" />
        </mxCell>
        <mxCell id="uyEi14HVC9VFbsCsnYhN-62" value="" style="sketch=0;outlineConnect=0;fontColor=#232F3E;gradientColor=none;fillColor=#8C4FFF;strokeColor=none;dashed=0;verticalLabelPosition=bottom;verticalAlign=top;align=center;html=1;fontSize=12;fontStyle=0;aspect=fixed;pointerEvents=1;shape=mxgraph.aws4.application_load_balancer;" parent="uyEi14HVC9VFbsCsnYhN-58" vertex="1">
          <mxGeometry x="630" y="180" width="80" height="80" as="geometry" />
        </mxCell>
        <mxCell id="uyEi14HVC9VFbsCsnYhN-64" value="&lt;font style=&quot;font-size: 15px;&quot;&gt;Private subnet&lt;br&gt;web-service-prod-ec2-a-subnet&lt;br&gt;(10.0.102.0/24)&lt;/font&gt;" style="points=[[0,0],[0.25,0],[0.5,0],[0.75,0],[1,0],[1,0.25],[1,0.5],[1,0.75],[1,1],[0.75,1],[0.5,1],[0.25,1],[0,1],[0,0.75],[0,0.5],[0,0.25]];outlineConnect=0;gradientColor=none;html=1;whiteSpace=wrap;fontSize=12;fontStyle=0;container=1;pointerEvents=0;collapsible=0;recursiveResize=0;shape=mxgraph.aws4.group;grIcon=mxgraph.aws4.group_security_group;grStroke=0;strokeColor=#00A4A6;fillColor=#E6F6F7;verticalAlign=top;align=left;spacingLeft=30;fontColor=#147EBA;dashed=0;" parent="uyEi14HVC9VFbsCsnYhN-58" vertex="1">
          <mxGeometry x="50" y="450" width="1290" height="400" as="geometry" />
        </mxCell>
        <mxCell id="uyEi14HVC9VFbsCsnYhN-65" value="" style="sketch=0;points=[[0,0,0],[0.25,0,0],[0.5,0,0],[0.75,0,0],[1,0,0],[0,1,0],[0.25,1,0],[0.5,1,0],[0.75,1,0],[1,1,0],[0,0.25,0],[0,0.5,0],[0,0.75,0],[1,0.25,0],[1,0.5,0],[1,0.75,0]];outlineConnect=0;fontColor=#232F3E;fillColor=#ED7100;strokeColor=#ffffff;dashed=0;verticalLabelPosition=bottom;verticalAlign=top;align=center;html=1;fontSize=12;fontStyle=0;aspect=fixed;shape=mxgraph.aws4.resourceIcon;resIcon=mxgraph.aws4.ec2;" parent="uyEi14HVC9VFbsCsnYhN-64" vertex="1">
          <mxGeometry x="300" y="110" width="78" height="78" as="geometry" />
        </mxCell>
        <mxCell id="uyEi14HVC9VFbsCsnYhN-99" style="edgeStyle=orthogonalEdgeStyle;rounded=0;orthogonalLoop=1;jettySize=auto;html=1;exitX=0.75;exitY=0;exitDx=0;exitDy=0;exitPerimeter=0;strokeColor=#33FF33;strokeWidth=2;" parent="uyEi14HVC9VFbsCsnYhN-64" source="uyEi14HVC9VFbsCsnYhN-76" edge="1">
          <mxGeometry relative="1" as="geometry">
            <mxPoint x="1150" y="-190" as="targetPoint" />
            <Array as="points">
              <mxPoint x="949" y="-20" />
              <mxPoint x="1151" y="-20" />
            </Array>
          </mxGeometry>
        </mxCell>
        <mxCell id="uyEi14HVC9VFbsCsnYhN-76" value="" style="sketch=0;points=[[0,0,0],[0.25,0,0],[0.5,0,0],[0.75,0,0],[1,0,0],[0,1,0],[0.25,1,0],[0.5,1,0],[0.75,1,0],[1,1,0],[0,0.25,0],[0,0.5,0],[0,0.75,0],[1,0.25,0],[1,0.5,0],[1,0.75,0]];outlineConnect=0;fontColor=#232F3E;fillColor=#ED7100;strokeColor=#ffffff;dashed=0;verticalLabelPosition=bottom;verticalAlign=top;align=center;html=1;fontSize=12;fontStyle=0;aspect=fixed;shape=mxgraph.aws4.resourceIcon;resIcon=mxgraph.aws4.ec2;" parent="uyEi14HVC9VFbsCsnYhN-64" vertex="1">
          <mxGeometry x="890" y="110" width="78" height="78" as="geometry" />
        </mxCell>
        <mxCell id="uyEi14HVC9VFbsCsnYhN-102" value="d" style="fillColor=none;strokeColor=#FF3333;dashed=1;verticalAlign=middle;fontStyle=0;fontColor=#5A6C86;whiteSpace=wrap;html=1;strokeWidth=4;labelPosition=left;verticalLabelPosition=middle;align=right;" parent="uyEi14HVC9VFbsCsnYhN-64" vertex="1">
          <mxGeometry x="100" y="70" width="510" height="230" as="geometry" />
        </mxCell>
        <mxCell id="uyEi14HVC9VFbsCsnYhN-103" value="" style="fillColor=none;strokeColor=#FF3333;dashed=1;verticalAlign=top;fontStyle=0;fontColor=#5A6C86;whiteSpace=wrap;html=1;strokeWidth=4;" parent="uyEi14HVC9VFbsCsnYhN-64" vertex="1">
          <mxGeometry x="687" y="70" width="523" height="230" as="geometry" />
        </mxCell>
        <mxCell id="uyEi14HVC9VFbsCsnYhN-114" value="&lt;font style=&quot;font-size: 14px;&quot;&gt;固定IPアドレスは割り当てない。&lt;br&gt;&lt;/font&gt;" style="shape=callout;whiteSpace=wrap;html=1;perimeter=calloutPerimeter;direction=west;position2=0.76;strokeColor=#FF3333;strokeWidth=3;" parent="uyEi14HVC9VFbsCsnYhN-64" vertex="1">
          <mxGeometry x="899" y="240" width="331" height="100" as="geometry" />
        </mxCell>
        <mxCell id="uyEi14HVC9VFbsCsnYhN-115" value="&lt;font style=&quot;font-size: 15px;&quot;&gt;ターゲットグループ　　　　　　　　　　&lt;b&gt;80/TCP&lt;/b&gt;&lt;br&gt;web-service-prod-web-a-&lt;br&gt;80-targetgroup&lt;br&gt;&lt;/font&gt;" style="text;html=1;strokeColor=none;fillColor=none;align=left;verticalAlign=middle;whiteSpace=wrap;rounded=0;" parent="uyEi14HVC9VFbsCsnYhN-64" vertex="1">
          <mxGeometry x="100" y="96" width="491" height="30" as="geometry" />
        </mxCell>
        <mxCell id="uyEi14HVC9VFbsCsnYhN-117" value="&lt;font style=&quot;font-size: 15px;&quot;&gt;&lt;b&gt;web-service-prod-web-a&lt;br&gt;(10.0.102.x)&lt;/b&gt;&lt;/font&gt;" style="text;html=1;strokeColor=none;fillColor=none;align=center;verticalAlign=middle;whiteSpace=wrap;rounded=0;" parent="uyEi14HVC9VFbsCsnYhN-64" vertex="1">
          <mxGeometry x="100" y="200" width="491" height="30" as="geometry" />
        </mxCell>
        <mxCell id="uyEi14HVC9VFbsCsnYhN-118" value="&lt;font style=&quot;font-size: 15px;&quot;&gt;ターゲットグループ　　　　　　　　　　&lt;b&gt;80/TCP&lt;/b&gt;&lt;br&gt;web-service-prod-web-b-&lt;br&gt;80-targetgroup&lt;br&gt;&lt;/font&gt;" style="text;html=1;strokeColor=none;fillColor=none;align=left;verticalAlign=middle;whiteSpace=wrap;rounded=0;" parent="uyEi14HVC9VFbsCsnYhN-64" vertex="1">
          <mxGeometry x="699" y="96" width="491" height="30" as="geometry" />
        </mxCell>
        <mxCell id="uyEi14HVC9VFbsCsnYhN-119" value="&lt;font style=&quot;font-size: 15px;&quot;&gt;&lt;b&gt;web-service-prod-web-b&lt;br&gt;(10.0.102.x)&lt;/b&gt;&lt;/font&gt;" style="text;html=1;strokeColor=none;fillColor=none;align=center;verticalAlign=middle;whiteSpace=wrap;rounded=0;" parent="uyEi14HVC9VFbsCsnYhN-64" vertex="1">
          <mxGeometry x="686" y="200" width="491" height="30" as="geometry" />
        </mxCell>
        <mxCell id="uyEi14HVC9VFbsCsnYhN-96" style="edgeStyle=orthogonalEdgeStyle;rounded=0;orthogonalLoop=1;jettySize=auto;html=1;strokeColor=#3333FF;strokeWidth=2;" parent="uyEi14HVC9VFbsCsnYhN-58" source="uyEi14HVC9VFbsCsnYhN-62" target="uyEi14HVC9VFbsCsnYhN-65" edge="1">
          <mxGeometry relative="1" as="geometry">
            <Array as="points">
              <mxPoint x="670" y="470" />
              <mxPoint x="389" y="470" />
            </Array>
          </mxGeometry>
        </mxCell>
        <mxCell id="uyEi14HVC9VFbsCsnYhN-97" style="edgeStyle=elbowEdgeStyle;rounded=0;orthogonalLoop=1;jettySize=auto;html=1;strokeWidth=2;strokeColor=#3333FF;elbow=vertical;" parent="uyEi14HVC9VFbsCsnYhN-58" source="uyEi14HVC9VFbsCsnYhN-62" target="uyEi14HVC9VFbsCsnYhN-76" edge="1">
          <mxGeometry relative="1" as="geometry">
            <Array as="points">
              <mxPoint x="830" y="470" />
            </Array>
          </mxGeometry>
        </mxCell>
        <mxCell id="uyEi14HVC9VFbsCsnYhN-105" value="&lt;font style=&quot;font-size: 14px;&quot;&gt;443/TCP&lt;/font&gt;" style="text;html=1;strokeColor=none;fillColor=none;align=center;verticalAlign=middle;whiteSpace=wrap;rounded=0;fontStyle=1" parent="uyEi14HVC9VFbsCsnYhN-58" vertex="1">
          <mxGeometry x="580" y="150" width="79" height="30" as="geometry" />
        </mxCell>
        <mxCell id="uyEi14HVC9VFbsCsnYhN-107" value="&lt;span style=&quot;font-size: 14px;&quot;&gt;web-service-prod-alb&lt;br style=&quot;font-size: 14px;&quot;&gt;&lt;/span&gt;" style="text;html=1;strokeColor=none;fillColor=none;align=center;verticalAlign=middle;whiteSpace=wrap;rounded=0;fontStyle=1;fontSize=14;" parent="uyEi14HVC9VFbsCsnYhN-58" vertex="1">
          <mxGeometry x="530" y="260" width="280" height="30" as="geometry" />
        </mxCell>
        <mxCell id="uyEi14HVC9VFbsCsnYhN-109" value="&lt;font style=&quot;font-size: 14px;&quot;&gt;リスナーにSSL証明書を割り当てる。&lt;/font&gt;" style="shape=callout;whiteSpace=wrap;html=1;perimeter=calloutPerimeter;direction=north;position2=0.82;base=29;strokeColor=#FF3333;strokeWidth=3;" parent="uyEi14HVC9VFbsCsnYhN-55" vertex="1">
          <mxGeometry x="380" y="310" width="270" height="90" as="geometry" />
        </mxCell>
        <mxCell id="uyEi14HVC9VFbsCsnYhN-110" value="&lt;font style=&quot;font-size: 14px;&quot;&gt;リスナー 443/TCP&lt;br&gt;→リスナールールを設定してURLによりweb-aに転送したりweb-bに転送する。&lt;br&gt;&lt;/font&gt;" style="shape=callout;whiteSpace=wrap;html=1;perimeter=calloutPerimeter;direction=west;position2=0.97;strokeColor=#FF3333;strokeWidth=3;" parent="uyEi14HVC9VFbsCsnYhN-55" vertex="1">
          <mxGeometry x="789" y="340" width="331" height="150" as="geometry" />
        </mxCell>
        <mxCell id="uyEi14HVC9VFbsCsnYhN-61" value="" style="sketch=0;outlineConnect=0;fontColor=#232F3E;gradientColor=none;fillColor=#8C4FFF;strokeColor=none;dashed=0;verticalLabelPosition=bottom;verticalAlign=top;align=center;html=1;fontSize=12;fontStyle=0;aspect=fixed;pointerEvents=1;shape=mxgraph.aws4.nat_gateway;" parent="uyEi14HVC9VFbsCsnYhN-55" vertex="1">
          <mxGeometry x="1200" y="280" width="78" height="78" as="geometry" />
        </mxCell>
        <mxCell id="uyEi14HVC9VFbsCsnYhN-98" style="edgeStyle=orthogonalEdgeStyle;rounded=0;orthogonalLoop=1;jettySize=auto;html=1;exitX=0.75;exitY=0;exitDx=0;exitDy=0;exitPerimeter=0;strokeColor=#66FF66;strokeWidth=2;" parent="uyEi14HVC9VFbsCsnYhN-55" source="uyEi14HVC9VFbsCsnYhN-65" target="uyEi14HVC9VFbsCsnYhN-61" edge="1">
          <mxGeometry relative="1" as="geometry">
            <Array as="points">
              <mxPoint x="449" y="530" />
              <mxPoint x="1239" y="530" />
            </Array>
          </mxGeometry>
        </mxCell>
        <mxCell id="IkprI8HKpVjri-fACo05-1" value="" style="sketch=0;outlineConnect=0;fontColor=#232F3E;gradientColor=none;fillColor=#8C4FFF;strokeColor=none;dashed=0;verticalLabelPosition=bottom;verticalAlign=top;align=center;html=1;fontSize=12;fontStyle=0;aspect=fixed;pointerEvents=1;shape=mxgraph.aws4.internet_gateway;" vertex="1" parent="uyEi14HVC9VFbsCsnYhN-55">
          <mxGeometry x="670" y="60" width="78" height="78" as="geometry" />
        </mxCell>
        <mxCell id="uyEi14HVC9VFbsCsnYhN-80" style="edgeStyle=orthogonalEdgeStyle;rounded=1;orthogonalLoop=1;jettySize=auto;html=1;strokeColor=#3333FF;curved=0;strokeWidth=2;" parent="uyEi14HVC9VFbsCsnYhN-55" target="uyEi14HVC9VFbsCsnYhN-62" edge="1">
          <mxGeometry relative="1" as="geometry">
            <mxPoint x="710" y="140" as="sourcePoint" />
            <Array as="points" />
          </mxGeometry>
        </mxCell>
        <mxCell id="uyEi14HVC9VFbsCsnYhN-113" style="edgeStyle=orthogonalEdgeStyle;rounded=0;orthogonalLoop=1;jettySize=auto;html=1;entryX=0.5;entryY=1;entryDx=0;entryDy=0;entryPerimeter=0;strokeColor=#33FF33;strokeWidth=2;" parent="1" source="uyEi14HVC9VFbsCsnYhN-61" target="uyEi14HVC9VFbsCsnYhN-47" edge="1">
          <mxGeometry relative="1" as="geometry" />
        </mxCell>
        <mxCell id="B_A87HpZ7wpacxn6n8_z-1" value="2024/01/25&amp;nbsp; &amp;nbsp;Updated by shuhei." style="text;html=1;align=center;verticalAlign=middle;whiteSpace=wrap;rounded=0;strokeColor=default;strokeWidth=1;fillColor=#33FFFF;" parent="1" vertex="1">
          <mxGeometry x="1390" y="110" width="200" height="25" as="geometry" />
        </mxCell>
        <mxCell id="IkprI8HKpVjri-fACo05-3" value="" style="edgeStyle=orthogonalEdgeStyle;rounded=1;orthogonalLoop=1;jettySize=auto;html=1;strokeColor=#3333FF;curved=0;strokeWidth=2;" edge="1" parent="1">
          <mxGeometry relative="1" as="geometry">
            <mxPoint x="760" y="90" as="sourcePoint" />
            <mxPoint x="760" y="210" as="targetPoint" />
          </mxGeometry>
        </mxCell>
      </root>
    </mxGraphModel>
  </diagram>
</mxfile>
